<svg width="17" height="14" viewBox="0 0 17 14" fill="none" xmlns="http://www.w3.org/2000/svg">
<path fill-rule="evenodd" clip-rule="evenodd" d="M11.0025 0.333252C11.6225 0.333252 12.2775 0.549919 12.8775 0.789085L13.3166 0.969085C14.3666 1.40909 14.9566 2.33242 15.4141 3.34659C16.1566 4.99242 16.6725 7.18659 16.8508 8.85492C16.9358 9.64659 16.9566 10.4433 16.8041 10.9791C16.64 11.5516 16.0816 11.9566 15.5391 12.2749L15.2708 12.4274L14.9925 12.5824C14.8491 12.6624 14.7016 12.7416 14.555 12.8191L14.12 13.0441L13.5225 13.3416L13.0416 13.5783C12.9434 13.6312 12.8355 13.6639 12.7244 13.6744C12.6133 13.6849 12.5012 13.673 12.3948 13.6393C12.2884 13.6057 12.1899 13.551 12.105 13.4785C12.0201 13.406 11.9507 13.3173 11.9007 13.2174C11.8508 13.1176 11.8215 13.0088 11.8144 12.8974C11.8074 12.786 11.8228 12.6744 11.8597 12.5691C11.8966 12.4637 11.9543 12.3669 12.0294 12.2843C12.1044 12.2017 12.1953 12.1351 12.2966 12.0883L12.955 11.7633L12.4716 11.2558C11.3133 11.7308 9.94914 11.9999 8.49997 11.9999C7.0508 11.9999 5.68664 11.7316 4.5283 11.2558L4.04497 11.7624L4.7058 12.0874C4.80375 12.1363 4.8911 12.2041 4.96287 12.2867C5.03464 12.3694 5.08942 12.4654 5.12409 12.5693C5.15875 12.6731 5.17263 12.7828 5.16491 12.892C5.1572 13.0012 5.12806 13.1078 5.07914 13.2058C5.03022 13.3037 4.96249 13.391 4.87982 13.4628C4.79714 13.5346 4.70114 13.5894 4.59729 13.624C4.38756 13.694 4.15861 13.6779 3.9608 13.5791L3.50747 13.3541C3.17247 13.1874 2.83664 13.0224 2.50497 12.8483L1.73164 12.4274L1.46414 12.2749C0.921638 11.9566 0.362471 11.5516 0.199138 10.9791C0.0458045 10.4433 0.0674711 9.64742 0.151638 8.85409C0.329971 7.18659 0.845805 4.99242 1.5883 3.34659C2.0458 2.33242 2.6358 1.40909 3.6858 0.969085C4.38247 0.677419 5.22664 0.333252 5.99997 0.333252C6.50247 0.333252 6.89747 0.795752 6.82497 1.28909C7.37952 1.20703 7.93938 1.16609 8.49997 1.16659C9.0758 1.16659 9.6383 1.20825 10.1783 1.28992C10.1622 1.17158 10.1715 1.05117 10.2055 0.936676C10.2394 0.82218 10.2973 0.716204 10.3753 0.625762C10.4533 0.53532 10.5496 0.462475 10.6579 0.412048C10.7662 0.361621 10.8831 0.334764 11.0025 0.333252ZM5.79164 5.74992C5.40486 5.74992 5.03393 5.90356 4.76044 6.17705C4.48695 6.45055 4.3333 6.82148 4.3333 7.20825C4.3333 7.59503 4.48695 7.96596 4.76044 8.23945C5.03393 8.51294 5.40486 8.66659 5.79164 8.66659C6.17841 8.66659 6.54935 8.51294 6.82284 8.23945C7.09633 7.96596 7.24997 7.59503 7.24997 7.20825C7.24997 6.82148 7.09633 6.45055 6.82284 6.17705C6.54935 5.90356 6.17841 5.74992 5.79164 5.74992ZM11.2083 5.74992C10.8215 5.74992 10.4506 5.90356 10.1771 6.17705C9.90362 6.45055 9.74997 6.82148 9.74997 7.20825C9.74997 7.59503 9.90362 7.96596 10.1771 8.23945C10.4506 8.51294 10.8215 8.66659 11.2083 8.66659C11.5951 8.66659 11.966 8.51294 12.2395 8.23945C12.513 7.96596 12.6666 7.59503 12.6666 7.20825C12.6666 6.82148 12.513 6.45055 12.2395 6.17705C11.966 5.90356 11.5951 5.74992 11.2083 5.74992Z" fill="#586AEA"/>
</svg>
