<svg width="120" height="64" viewBox="0 0 120 64" fill="none" xmlns="http://www.w3.org/2000/svg">
<mask id="path-1-inside-1_12672_2609" fill="white">
<path d="M108 0.201172C114.627 0.201173 120 5.57376 120 12.2012V38.2012C120 44.8286 114.627 50.2012 108 50.2012H73.5977L60 63.7988L46.4023 50.2012H12C5.37258 50.2012 0 44.8286 0 38.2012V12.2012C2.57711e-07 5.57376 5.37258 0.201172 12 0.201172H108Z"/>
</mask>
<path d="M108 0.201172C114.627 0.201173 120 5.57376 120 12.2012V38.2012C120 44.8286 114.627 50.2012 108 50.2012H73.5977L60 63.7988L46.4023 50.2012H12C5.37258 50.2012 0 44.8286 0 38.2012V12.2012C2.57711e-07 5.57376 5.37258 0.201172 12 0.201172H108Z" fill="#FCFCFD"/>
<path d="M108 0.201172V-1.79883V0.201172ZM120 38.2012H122H120ZM108 50.2012V52.2012V50.2012ZM73.5977 50.2012V48.2012H72.7692L72.1834 48.787L73.5977 50.2012ZM60 63.7988L58.5858 65.213L60 66.6273L61.4142 65.213L60 63.7988ZM46.4023 50.2012L47.8166 48.787L47.2308 48.2012H46.4023V50.2012ZM12 50.2012V52.2012V50.2012ZM0 12.2012H-2H0ZM12 0.201172V-1.79883V0.201172ZM108 0.201172V2.20117C113.523 2.20117 118 6.67833 118 12.2012H120H122C122 4.46919 115.732 -1.79883 108 -1.79883V0.201172ZM120 12.2012H118V38.2012H120H122V12.2012H120ZM120 38.2012H118C118 43.724 113.523 48.2012 108 48.2012V50.2012V52.2012C115.732 52.2012 122 45.9332 122 38.2012H120ZM108 50.2012V48.2012H73.5977V50.2012V52.2012H108V50.2012ZM73.5977 50.2012L72.1834 48.787L58.5858 62.3846L60 63.7988L61.4142 65.213L75.0119 51.6154L73.5977 50.2012ZM60 63.7988L61.4142 62.3846L47.8166 48.787L46.4023 50.2012L44.9881 51.6154L58.5858 65.213L60 63.7988ZM46.4023 50.2012V48.2012H12V50.2012V52.2012H46.4023V50.2012ZM12 50.2012V48.2012C6.47715 48.2012 2 43.724 2 38.2012H0H-2C-2 45.9332 4.26802 52.2012 12 52.2012V50.2012ZM0 38.2012H2V12.2012H0H-2V38.2012H0ZM0 12.2012H2C2 6.67832 6.47715 2.20117 12 2.20117V0.201172V-1.79883C4.26801 -1.79883 -2 4.46919 -2 12.2012H0ZM12 0.201172V2.20117H108V0.201172V-1.79883H12V0.201172Z" fill="#4A69E8" mask="url(#path-1-inside-1_12672_2609)"/>
<path d="M31.4416 37.64L26.4616 17.88H28.4016L33.3816 37.64H31.4416ZM46.6867 31.86C48.8867 31.86 50.2867 29.86 50.2867 26.54C50.2867 23.36 48.8867 21.46 46.6867 21.46C44.4867 21.46 43.0867 23.36 43.0867 26.54C43.0867 29.86 44.4867 31.86 46.6867 31.86ZM51.4667 38.02C48.4467 38.02 46.3467 36.4 45.3267 34.16C42.1667 33.56 40.0667 30.76 40.0667 26.54C40.0667 21.72 42.7667 18.92 46.6867 18.92C50.6067 18.92 53.3067 21.74 53.3067 26.54C53.3067 30.58 51.3867 33.3 48.4467 34.06C49.1267 35.18 50.4667 35.64 51.8067 35.64C52.4467 35.64 53.0067 35.54 53.4267 35.4L53.9667 37.58C53.4467 37.82 52.5467 38.02 51.4667 38.02ZM59.6573 22.68C59.6573 23.3 59.8573 23.96 60.1973 24.66C61.3573 23.96 62.2573 23.24 62.2573 22.16C62.2573 21.42 61.9173 20.88 61.1573 20.88C60.2773 20.88 59.6573 21.58 59.6573 22.68ZM60.2173 34.28C57.1173 34.28 55.3773 32.38 55.3773 30.08C55.3773 28.02 56.6773 26.82 58.1573 25.88C57.5573 24.76 57.2173 23.66 57.2173 22.68C57.2173 20.62 58.7373 18.92 61.0973 18.92C63.2173 18.92 64.5373 20.2 64.5373 22.14C64.5373 24.1 62.9373 25.32 61.3573 26.42C62.2373 27.52 63.3773 28.6 64.5573 29.5C65.3373 28.46 65.9773 27.2 66.3773 25.74H69.0373C68.4973 27.58 67.6973 29.28 66.5373 30.82C67.4973 31.36 68.3973 31.74 69.1773 31.88L68.4573 34.28C67.2773 34.02 65.9973 33.5 64.7573 32.72C63.5373 33.68 62.0373 34.28 60.2173 34.28ZM58.1773 29.9C58.1773 31.16 59.1573 32.02 60.5773 32.02C61.3173 32.02 62.0373 31.74 62.7373 31.28C61.4773 30.24 60.3373 29.06 59.3973 27.82C58.6773 28.44 58.1773 29.1 58.1773 29.9ZM75.0025 26.28L74.5625 27.9H78.0825L77.6425 26.28C77.1825 24.74 76.7825 23.04 76.3625 21.44H76.2625C75.8825 23.06 75.4425 24.74 75.0025 26.28ZM69.8825 34L74.6225 19.18H78.1025L82.8625 34H79.7625L78.7225 30.2H73.9225L72.8825 34H69.8825ZM88.3863 37.64L93.3663 17.88H95.3063L90.3463 37.64H88.3863Z" fill="#4A69E8"/>
</svg>
