<svg width="42" height="42" viewBox="0 0 42 42" fill="none" xmlns="http://www.w3.org/2000/svg">
<path d="M5.85824 9.7829C6.08473 10.3816 6.24213 10.9939 6.51643 11.5785C7.50187 13.6789 9.317 15.5247 11.4751 16.5026C12.2353 16.8402 13.0305 17.0978 13.8471 17.2708L13.8402 17.3357C13.8541 17.3475 13.8655 17.3627 13.8817 17.3708C13.9436 17.4016 14.1308 17.4008 14.2055 17.4112C14.2911 17.4231 14.3699 17.4511 14.4542 17.467C14.7324 17.5191 15.0312 17.549 15.3135 17.5612C15.8296 17.5835 16.3511 17.5381 16.8673 17.525C17.4416 17.5104 18.0195 17.5222 18.5941 17.5221L21.0289 17.5233C21.4398 17.5239 21.8707 17.552 22.2786 17.518C22.2982 17.5164 22.3178 17.5139 22.3372 17.5109L22.5791 17.5081C22.0699 18.643 20.9032 19.667 19.727 20.1203C19.1931 20.3301 18.6325 20.4693 18.0605 20.5339C17.7301 20.5702 17.3868 20.5542 17.0544 20.554L15.4641 20.552L13.2406 20.552C12.8221 20.552 12.3998 20.5649 11.9821 20.5435C11.8245 20.7144 11.6266 20.854 11.4458 21.0011L10.4668 21.7949L9.30865 22.7444C9.06139 22.9439 8.8223 23.1494 8.54763 23.3137C8.35156 23.431 8.17143 23.5025 7.93876 23.5141C7.59587 23.5309 7.25341 23.4271 6.99943 23.1977C6.93514 23.1397 6.86497 23.064 6.82383 22.989C6.83755 22.8684 6.72135 22.6547 6.69576 22.5215C6.65588 22.3139 6.68959 22.0538 6.69073 21.8411C6.69204 21.5973 6.71055 20.5362 6.61696 20.4058C6.12446 20.4052 5.08359 19.8668 4.67789 19.5939C3.40704 18.7388 2.5224 17.4635 2.24944 15.9789C2.21345 15.7832 2.06775 14.94 2.17132 14.795L2.235 14.7756C2.31047 14.6712 2.31237 14.1151 2.29721 13.9852C2.29075 13.9298 2.28611 13.8743 2.28082 13.8188C2.61241 12.3755 3.48487 11.1239 4.7728 10.328C5.11374 10.1173 5.48771 9.93925 5.85824 9.7829Z" fill="#36C99F"/>
<path d="M13.8468 17.2712C14.4141 17.3816 14.8489 17.4028 15.4135 17.4388C15.618 17.4519 15.8204 17.4868 16.0255 17.495C16.5487 17.5163 17.079 17.4965 17.6032 17.4959L20.4694 17.496L21.7047 17.4969C21.906 17.4973 22.1396 17.4786 22.3369 17.5112C22.3175 17.5142 22.2979 17.5167 22.2783 17.5183C21.8704 17.5524 21.4395 17.5242 21.0286 17.5237L18.5938 17.5224C18.0192 17.5225 17.4413 17.5108 16.867 17.5254C16.3507 17.5384 15.8293 17.5839 15.3132 17.5616C15.0309 17.5493 14.7321 17.5195 14.4539 17.4673C14.3696 17.4515 14.2908 17.4234 14.2052 17.4115C14.1305 17.4011 13.9433 17.4019 13.8814 17.3712C13.8651 17.3631 13.8538 17.3478 13.8398 17.3361L13.8468 17.2712Z" fill="#667F99"/>
<path d="M6.61703 20.4058C6.71062 20.5362 6.69211 21.5972 6.6908 21.841C6.68966 22.0537 6.65595 22.3139 6.69583 22.5215C6.72142 22.6547 6.83762 22.8684 6.82389 22.989C6.79678 22.9604 6.7734 22.9309 6.75183 22.898C6.67969 22.7882 6.62899 22.6498 6.6108 22.5216C6.57748 22.2868 6.57053 20.6058 6.61703 20.4058Z" fill="#667F99"/>
<path d="M2.27942 13.819C2.28471 13.8746 2.28935 13.9301 2.29581 13.9855C2.31097 14.1154 2.30907 14.6715 2.2336 14.7759L2.16992 14.7953C2.20691 14.4691 2.19144 14.1376 2.27942 13.819Z" fill="#667F99"/>
<path d="M15.1528 0H30.5697C30.8156 0.0745284 31.0726 0.0895135 31.3239 0.137517C31.7825 0.229182 32.2326 0.357196 32.6698 0.520277C34.5724 1.25073 36.0949 2.69207 36.8971 4.52224C37.7034 6.35205 37.7353 8.41734 36.9857 10.2699C36.1975 12.1852 34.6335 13.7006 32.6614 14.4597C32.3961 14.5638 32.1155 14.6478 31.8378 14.7145C31.6127 14.7686 31.3661 14.804 31.154 14.8962C31.1458 14.8998 31.1377 14.9038 31.1295 14.9075C31.0991 15.6613 31.1164 16.419 31.1187 17.1735C31.1198 17.5199 31.155 17.9009 31.1009 18.2416C31.0743 18.4086 31.0083 18.5638 30.9154 18.7058C30.7405 18.9729 30.4715 19.161 30.1512 19.2262C29.886 19.2801 29.5615 19.2636 29.3151 19.1523C28.912 18.9704 28.4449 18.5151 28.1003 18.233L25.2593 15.9206C24.9657 15.6865 24.6099 15.3412 24.3058 15.1465C24.2246 15.0946 24.1484 15.0383 24.0712 14.981C22.0204 14.938 19.946 14.9737 17.8931 14.9749L16.2407 14.9758C15.8907 14.9759 15.5302 14.9918 15.1824 14.9513C14.2195 14.8395 13.2641 14.591 12.3985 14.1616C10.6238 13.2812 9.18922 11.683 8.57849 9.8344C7.92938 7.90418 8.10606 5.80106 9.06863 3.9989C9.97596 2.31129 11.6155 0.945674 13.4838 0.371094C13.7478 0.289875 14.0288 0.199829 14.3005 0.148294C14.5922 0.092976 14.8626 0.0864661 15.1528 0Z" fill="#36C99F"/>
<path d="M26.9045 26.594C26.982 25.8924 27.3537 25.1335 27.7496 24.5485C28.3415 23.6737 29.2841 22.8741 30.2824 22.4703C30.7528 22.28 31.2276 22.1751 31.7249 22.077C31.9516 22.1662 33.225 22.2047 33.4442 22.1345C33.4505 22.14 33.4562 22.1461 33.4629 22.151C33.5177 22.1914 33.5702 22.1821 33.633 22.1698C33.6524 22.166 33.6718 22.1618 33.6911 22.1574L33.676 22.1732L33.6989 22.1952L33.7004 22.2071C33.7178 22.2284 33.7119 22.2309 33.739 22.2319C33.8213 22.2351 33.8967 22.1682 33.9851 22.1629C35.4793 22.5073 36.7712 23.4159 37.5758 24.688C38.063 25.4496 38.3017 26.2594 38.3899 27.1458C38.4073 27.3216 38.4375 27.4985 38.4353 27.6754C38.4327 27.8769 38.3997 28.0793 38.3798 28.2797C38.3571 28.5101 38.3428 28.7282 38.2881 28.9547C38.0932 29.7613 37.7571 30.4705 37.2381 31.129C37.0991 31.3052 36.9395 31.5075 36.742 31.6256C36.7302 31.6326 36.7182 31.6394 36.7063 31.6462C38.4222 32.3808 39.8994 33.5571 40.9789 35.0479C41.2717 35.4569 41.535 35.875 41.7218 36.341C42.1387 37.3816 42.0748 38.5356 41.6158 39.5475C41.1511 40.572 40.2315 41.3681 39.1634 41.7656C38.8863 41.8687 38.5585 41.86 38.3013 41.9993H26.9771C26.7534 41.9249 26.52 41.8783 26.2929 41.8142C25.2587 41.5221 24.3043 40.7649 23.7909 39.8428C23.2529 38.8765 23.0775 37.6848 23.4063 36.6229C23.8869 35.0712 25.6299 33.3422 26.9851 32.4597C27.462 32.1491 27.9823 31.9091 28.4882 31.6481C27.6611 30.9077 26.9953 29.6175 26.8757 28.5356L26.9249 28.5161C26.9809 28.3496 26.9311 26.8205 26.9045 26.594Z" fill="#667F99"/>
<path d="M6.3257 26.002C6.34431 26.0102 6.36167 26.0219 6.38152 26.0265C6.45554 26.0439 6.69814 26.0061 6.79004 26.0019C7.17978 25.9845 8.18159 25.9579 8.48527 26.0397C8.57264 26.0631 8.72933 26.1176 8.81518 26.0804C8.82058 26.0781 8.82522 26.0744 8.83019 26.0714C8.86747 26.1116 8.87379 26.121 8.92625 26.1363L8.94176 26.1256C8.98359 26.0973 9.01968 26.0761 9.06818 26.0589C10.2186 26.4119 11.2627 27.2471 11.8231 28.2911C12.2302 29.0493 12.4432 29.9797 12.3866 30.8355C12.3726 31.0473 12.3307 31.2556 12.2918 31.4641C12.2588 31.6409 12.2348 31.8275 12.1783 31.9982C12.0339 32.4349 11.6868 33.2174 11.3129 33.5024L11.3061 33.546C11.4687 33.7407 12.0695 34 12.3108 34.1712C13.3933 34.9392 14.6128 36.128 15.0242 37.403C15.1745 37.869 15.2173 38.3761 15.1652 38.8614C15.0556 39.8851 14.4898 40.7226 13.6757 41.3548C13.4088 41.5621 13.0881 41.707 12.7619 41.8005C12.5706 41.8553 12.2553 41.8866 12.099 42H3.10683C2.91315 41.9361 2.71246 41.8958 2.5166 41.8389C2.142 41.7301 1.78599 41.5437 1.47294 41.3173C0.804225 40.8337 0.178684 40.0084 0.0566406 39.191L0.110908 39.1861C0.160498 38.9578 0.116161 37.8812 0.0873713 37.6073C0.266152 36.7732 1.12363 35.6397 1.74462 35.0415C2.03682 34.76 2.59058 34.3439 2.9338 34.107C3.22581 33.9054 3.59308 33.7963 3.85794 33.5573C3.8639 33.552 3.86966 33.5463 3.87553 33.5409C3.76375 33.3557 3.61237 33.1875 3.48772 33.0096C3.22029 32.6278 3.02456 32.1606 2.92371 31.7095L2.94775 31.6979L2.94403 31.7219L2.98523 31.6942C2.98275 31.6809 2.98196 31.6672 2.97778 31.6543C2.81067 31.1375 2.9378 30.1556 2.86973 29.5478C2.90105 29.116 3.24348 28.394 3.49332 28.0278C3.68993 27.7397 3.90805 27.4406 4.1582 27.1946C4.6955 26.6663 5.57322 26.1516 6.3257 26.002Z" fill="#667F99"/>
<path d="M6.32617 26.0011C6.7672 25.8259 7.83268 25.8323 8.32063 25.8957C8.57523 25.9289 8.82004 25.9976 9.06865 26.0579C9.02016 26.0751 8.98407 26.0963 8.94224 26.1247L8.92672 26.1354C8.87427 26.12 8.86794 26.1107 8.83067 26.0705C8.82569 26.0735 8.82105 26.0771 8.81566 26.0795C8.72981 26.1167 8.57312 26.0622 8.48575 26.0387C8.18207 25.9569 7.18025 25.9835 6.79051 26.001C6.69862 26.0052 6.45602 26.0429 6.382 26.0256C6.36215 26.021 6.34478 26.0093 6.32617 26.0011Z" fill="#667F99"/>
<path d="M31.7246 22.0768C32.5624 21.9636 33.1619 22.0135 33.9848 22.1627C33.8964 22.1681 33.8209 22.235 33.7386 22.2318C33.7116 22.2307 33.7175 22.2283 33.7001 22.2069L33.6986 22.195L33.6756 22.1731L33.6908 22.1572C33.6715 22.1617 33.6521 22.1658 33.6326 22.1697C33.5699 22.182 33.5173 22.1913 33.4626 22.1509C33.4559 22.146 33.4501 22.1399 33.4439 22.1344C33.2247 22.2046 31.9513 22.1661 31.7246 22.0768Z" fill="#667F99"/>
<path d="M2.87033 29.547C2.93841 30.1548 2.81128 31.1367 2.97839 31.6535C2.98256 31.6664 2.98336 31.6801 2.98584 31.6935L2.94463 31.7211L2.94835 31.6972L2.92432 31.7087C2.71476 31.3772 2.7756 29.9437 2.87033 29.547Z" fill="#667F99"/>
<path d="M26.9038 26.5941C26.9304 26.8206 26.9802 28.3497 26.9242 28.5162L26.875 28.5357C26.7808 28.2075 26.8201 26.9455 26.9038 26.5941Z" fill="#667F99"/>
<path d="M0.0870282 37.6066C0.115818 37.8805 0.160155 38.9571 0.110564 39.1854L0.0562975 39.1903C-0.0368423 38.8505 -0.00591596 37.9506 0.0870282 37.6066Z" fill="#667F99"/>
</svg>
