<svg width="120" height="64" viewBox="0 0 120 64" fill="none" xmlns="http://www.w3.org/2000/svg">
<mask id="path-1-inside-1_12633_2496" fill="white">
<path d="M108 0.201172C114.627 0.201173 120 5.57376 120 12.2012V38.2012C120 44.8286 114.627 50.2012 108 50.2012H73.5977L60 63.7988L46.4023 50.2012H12C5.37258 50.2012 0 44.8286 0 38.2012V12.2012C2.57711e-07 5.57376 5.37258 0.201172 12 0.201172H108Z"/>
</mask>
<path d="M108 0.201172C114.627 0.201173 120 5.57376 120 12.2012V38.2012C120 44.8286 114.627 50.2012 108 50.2012H73.5977L60 63.7988L46.4023 50.2012H12C5.37258 50.2012 0 44.8286 0 38.2012V12.2012C2.57711e-07 5.57376 5.37258 0.201172 12 0.201172H108Z" fill="#FCFCFD"/>
<path d="M108 0.201172V-1.79883V0.201172ZM120 38.2012H122H120ZM108 50.2012V52.2012V50.2012ZM73.5977 50.2012V48.2012H72.7692L72.1834 48.787L73.5977 50.2012ZM60 63.7988L58.5858 65.213L60 66.6273L61.4142 65.213L60 63.7988ZM46.4023 50.2012L47.8166 48.787L47.2308 48.2012H46.4023V50.2012ZM12 50.2012V52.2012V50.2012ZM0 12.2012H-2H0ZM12 0.201172V-1.79883V0.201172ZM108 0.201172V2.20117C113.523 2.20117 118 6.67833 118 12.2012H120H122C122 4.46919 115.732 -1.79883 108 -1.79883V0.201172ZM120 12.2012H118V38.2012H120H122V12.2012H120ZM120 38.2012H118C118 43.724 113.523 48.2012 108 48.2012V50.2012V52.2012C115.732 52.2012 122 45.9332 122 38.2012H120ZM108 50.2012V48.2012H73.5977V50.2012V52.2012H108V50.2012ZM73.5977 50.2012L72.1834 48.787L58.5858 62.3846L60 63.7988L61.4142 65.213L75.0119 51.6154L73.5977 50.2012ZM60 63.7988L61.4142 62.3846L47.8166 48.787L46.4023 50.2012L44.9881 51.6154L58.5858 65.213L60 63.7988ZM46.4023 50.2012V48.2012H12V50.2012V52.2012H46.4023V50.2012ZM12 50.2012V48.2012C6.47715 48.2012 2 43.724 2 38.2012H0H-2C-2 45.9332 4.26802 52.2012 12 52.2012V50.2012ZM0 38.2012H2V12.2012H0H-2V38.2012H0ZM0 12.2012H2C2 6.67832 6.47715 2.20117 12 2.20117V0.201172V-1.79883C4.26801 -1.79883 -2 4.46919 -2 12.2012H0ZM12 0.201172V2.20117H108V0.201172V-1.79883H12V0.201172Z" fill="#4A69E8" mask="url(#path-1-inside-1_12633_2496)"/>
<path d="M26.5809 30.86L28.5009 30.62C28.8809 31.9 29.0809 33.58 29.0809 34.7L27.0409 34.94C27.1009 33.86 26.9009 32.14 26.5809 30.86ZM29.5809 30.68L31.4009 30.26C31.8609 31.36 32.3209 32.84 32.4609 33.78L30.5609 34.28C30.4409 33.3 30.0009 31.8 29.5809 30.68ZM33.8609 22.44H30.4609C30.2009 22.96 29.9409 23.46 29.6409 23.96H33.5009C33.6209 23.5 33.7409 22.98 33.8609 22.44ZM35.1809 26H28.3409C27.9409 26.54 27.5409 27.06 27.1009 27.56H34.8409C34.9609 27.08 35.0809 26.56 35.1809 26ZM39.2009 27.56L39.1409 28.48C38.8009 32.52 38.4409 34.26 37.8009 34.92C37.3209 35.44 36.8609 35.6 36.2009 35.68C35.6209 35.76 34.6809 35.76 33.6609 35.72C33.6209 35.06 33.3609 34.16 33.0009 33.56C33.8609 33.64 34.7009 33.66 35.1009 33.64C35.4209 33.64 35.6209 33.62 35.8209 33.42C36.1609 33.08 36.4409 32 36.6809 29.6H25.0209C24.7409 29.82 24.4609 30.06 24.1809 30.26L25.9009 30.84C25.5009 32.56 24.9009 34.42 23.7209 35.66L21.8809 34.36C22.8409 33.42 23.4809 31.96 23.8409 30.5C23.2409 30.94 22.5809 31.34 21.9009 31.72C21.6209 31.12 21.0409 30.18 20.6209 29.64C23.8209 28.02 26.1809 25.42 27.8009 22.44H21.5609V20.3H25.4609C25.0809 19.58 24.4009 18.62 23.7809 17.9L25.9209 17.06C26.6409 17.82 27.4809 18.92 27.8809 19.66L26.3209 20.3H28.8209C29.2809 19.24 29.6409 18.14 29.9209 17.06L32.3609 17.62C32.0809 18.52 31.7609 19.42 31.4209 20.3H36.4609C36.2209 21.48 35.9209 22.86 35.6609 23.96H37.7409C37.5209 25.14 37.2609 26.48 36.9809 27.56H39.2009ZM35.5009 32.38L33.7609 33C33.5809 32.3 33.0809 31.14 32.5809 30.3L34.2209 29.74C34.7609 30.56 35.3009 31.64 35.5009 32.38ZM45.8209 17.12L48.0809 17.84C47.5809 19.1 47.0209 20.42 46.3409 21.66V35.7H44.0009V25.38C43.5009 26.04 43.0009 26.66 42.5009 27.18C42.2809 26.6 41.6209 25.3 41.2209 24.72C43.0609 22.88 44.8209 20.02 45.8209 17.12ZM59.8609 23.66V26H54.9409V35.74H52.4609V26H47.3209V23.66H52.4609V17.36H54.9409V23.66H59.8609ZM79.2209 26.78H79.5009C79.7009 26.78 80.0809 26.76 80.2809 26.7C80.3009 27 80.3209 27.38 80.3609 27.7C80.1809 27.76 79.8409 27.78 79.5409 27.78H78.8409C77.8009 27.78 77.6209 27.32 77.6209 26.32V24.32H78.9609V26.34C78.9609 26.66 78.9809 26.78 79.2209 26.78ZM77.1009 27.94H75.3209V23.72H72.9209V21.94H75.3209V21.02H77.1009V21.94H79.9409V23.72H77.1009V27.94ZM80.0809 20.6H65.4009V24.04C65.4009 27.3 65.1209 32.44 63.6409 35.68C63.2409 35.26 62.2209 34.5 61.7409 34.28C63.0409 31.3 63.1409 27.02 63.1409 24.04V18.54H70.6409C70.5409 18.12 70.4209 17.68 70.3209 17.34L72.7209 16.9C72.9209 17.4 73.1209 18.02 73.2609 18.54H80.0809V20.6ZM69.9809 27.9H68.2009V23.72H66.0209V21.94H68.2009V21.02H69.9809V21.94H72.4009V23.72H69.9809V27.9ZM67.6609 24.34V25.18C67.6609 26.2 67.5209 27.42 66.6209 28.28C66.3809 28 65.8209 27.54 65.4809 27.36C66.2409 26.8 66.3609 25.8 66.3609 25.12V24.34H67.6609ZM75.0809 31.48L76.7809 30.68C77.8209 31.84 79.2809 33.54 80.0209 34.56L78.2009 35.54C78.0009 35.24 77.7409 34.86 77.4409 34.48C68.0409 35.16 66.9209 35.18 66.2009 35.42C66.1209 35.04 65.8409 34.06 65.6409 33.52C66.3209 33.42 67.0009 33.14 68.0209 32.64C68.4609 32.46 69.3009 32.06 70.2809 31.5C67.7009 31.66 67.2209 31.76 66.9009 31.88C66.8209 31.52 66.5609 30.62 66.3609 30.12C66.7609 30.08 67.1809 29.9 67.6609 29.62C68.1809 29.38 69.8009 28.46 71.0209 27.38C70.5809 27.2 70.4809 26.8 70.4809 26.1V24.42H71.7409V26.12C71.7409 26.42 71.7609 26.52 71.9609 26.52C72.1209 26.52 72.4209 26.52 72.6009 26.46C72.6209 26.66 72.6209 26.86 72.6409 27.08C73.3209 26.52 73.4409 25.68 73.4409 25.06V24.3H74.7409V25.12C74.7409 26.08 74.6009 27.24 73.6809 28.06C73.4609 27.78 72.9809 27.4 72.6409 27.2L72.6609 27.4C72.5009 27.46 72.2209 27.48 71.9609 27.48H71.6009H71.5809L72.8009 28.26C71.8409 28.98 70.7209 29.68 69.6409 30.24L72.6209 30.1C73.5409 29.52 74.4609 28.9 75.2809 28.22L77.0409 29.4C74.9809 30.9 72.7609 32.18 70.6209 33.22L76.2009 32.82C75.8209 32.36 75.4209 31.9 75.0809 31.48ZM89.9609 28.86C89.5409 25.72 93.7809 25 93.7809 23.06C93.7809 21.86 92.8209 21.18 91.2609 21.18C90.0209 21.18 89.0409 21.72 88.0609 22.76L86.4209 21.24C87.6809 19.76 89.4409 18.8 91.5809 18.8C94.4809 18.8 96.6009 20.14 96.6009 22.8C96.6009 25.74 92.2409 26.08 92.5409 28.86H89.9609ZM91.2609 34.18C90.2409 34.18 89.5009 33.46 89.5009 32.42C89.5009 31.36 90.2609 30.64 91.2609 30.64C92.2809 30.64 93.0209 31.36 93.0209 32.42C93.0209 33.46 92.2809 34.18 91.2609 34.18Z" fill="#4A69E8"/>
</svg>
