<svg width="42" height="42" viewBox="0 0 42 42" fill="none" xmlns="http://www.w3.org/2000/svg">
<path d="M16.0828 27.667C16.5099 28.0957 17.6239 29.3132 18.0795 29.515C18.2233 29.5787 18.3929 29.5817 18.548 29.5812C18.7057 29.5808 18.8821 29.5739 19.0231 29.4972C19.5079 29.2339 20.2927 28.3551 20.7041 27.9431L22.8762 25.7724C22.9309 25.718 23.114 25.5125 23.1924 25.5407L29.5496 36.2061L31.1465 38.8754C31.4104 39.3156 31.7322 39.7656 31.9315 40.2369C32.0442 40.5035 32.0543 40.8853 31.9843 41.1636C31.9154 41.4373 31.7651 41.6433 31.5203 41.7873C31.3832 41.868 31.2241 41.9158 31.092 41.9997H0.962082C0.887901 41.9485 0.792878 41.9177 0.712443 41.8754C0.379505 41.7 0.188952 41.4849 0.0546875 41.1358C0.0661509 41.1139 0.0790629 41.0915 0.081089 41.0661C0.0875474 40.9853 0.0667779 40.883 0.0676678 40.7982C0.0693189 40.6407 0.0943486 40.4885 0.0847542 40.3312C0.262363 39.8233 0.72122 39.1874 1.01324 38.7167C1.3868 38.1146 1.74484 37.5015 2.10943 36.8939L6.77047 29.154L8.29189 26.6163C8.50156 26.2625 8.73125 25.9217 8.92222 25.5575C8.93501 25.5332 8.9314 25.541 8.9561 25.5183C9.14395 25.5841 9.47888 25.9838 9.63564 26.141L11.6837 28.1932C12.0346 28.5444 12.3768 28.9288 12.7546 29.2496C12.887 29.362 13.0436 29.4705 13.2036 29.5393C13.4074 29.627 13.8842 29.5962 14.0825 29.5022C14.7024 29.2081 15.4906 28.1326 16.0828 27.667Z" fill="#667F99"/>
<path d="M15.7992 0H28.631C28.7467 0.0465694 28.8651 0.099545 28.9745 0.159329C29.2234 0.295401 29.4408 0.516314 29.517 0.795596C29.5867 1.0505 29.5896 1.41929 29.5158 1.67401C29.4409 1.93272 29.2988 2.17773 29.1777 2.41723L28.7005 3.36615L27.8284 5.11214C27.6554 5.45705 27.4904 5.81032 27.2957 6.14374C27.4454 6.51578 27.6584 6.88235 27.8379 7.24175L28.9516 9.46576C29.1251 9.81201 29.3295 10.1657 29.465 10.5277C29.5186 10.671 29.5594 10.8241 29.5636 10.9775C29.5739 11.3523 29.5339 11.6583 29.2597 11.9386C29.1235 12.0779 28.9399 12.2053 28.7464 12.2382C28.3046 12.3134 27.8244 12.2798 27.3765 12.28L25.2754 12.2803L17.2907 12.2841C17.2452 12.9797 17.2721 13.6886 17.2704 14.3858C17.2695 14.7633 17.2303 15.1692 17.2604 15.543C17.2642 15.5894 17.2756 15.6298 17.2946 15.6722C17.2995 15.6834 17.305 15.6942 17.3101 15.7052C17.4348 15.9739 17.6044 16.2264 17.7568 16.4803L18.5107 17.7376L20.9628 21.8246C21.1302 22.1028 21.7748 23.0796 21.8176 23.33C21.6899 23.5405 21.458 23.7287 21.2834 23.9037L20.4068 24.7813L19.2363 25.9516C19.0129 26.1747 18.7942 26.4145 18.5534 26.6185C18.397 26.5196 18.2656 26.3672 18.1354 26.2365L17.4959 25.5941C17.1713 25.2675 16.7756 24.7837 16.286 24.7347C16.108 24.717 15.8624 24.7109 15.6931 24.7688C15.1001 24.9717 14.1958 26.1418 13.6525 26.6004L13.6312 26.6182C13.3624 26.4486 12.9229 25.944 12.6799 25.7004C11.8927 24.9112 11.1192 24.0889 10.2988 23.3346C10.2933 23.221 13.4845 17.9639 13.8116 17.4195C14.0226 17.0683 14.8348 15.8298 14.8715 15.5278C14.9037 15.2641 14.8725 14.9687 14.8704 14.7012L14.8705 13.1174L14.8708 5.13657L14.8704 2.53012C14.8704 2.0419 14.8549 1.5471 14.8801 1.05958C14.8875 0.91757 14.9038 0.775887 14.9703 0.647829C15.137 0.3263 15.4625 0.108654 15.7992 0Z" fill="#36C99F"/>
<path d="M34.3135 41.9999C34.3375 41.751 34.4087 41.5141 34.4543 41.2691C34.5275 40.8762 34.5315 40.3683 34.4358 39.9809C34.2257 39.1313 33.6659 38.306 33.2185 37.5563L32.0562 35.618L28.7268 30.0196L27.7408 28.3698C27.5532 28.059 27.3519 27.7513 27.1777 27.433C27.1428 27.3694 27.103 27.2971 27.1035 27.2223C27.1041 27.1339 27.1494 27.0432 27.1908 26.9676C27.2772 26.8098 27.3909 26.6666 27.4809 26.5111C27.8532 25.8686 28.2372 25.2331 28.6193 24.5961L29.394 23.3042C29.5508 23.043 29.7168 22.6853 29.9335 22.474C30.148 22.2649 30.5463 22.1309 30.8425 22.1321C31.1286 22.1332 31.4793 22.2414 31.686 22.4434C31.6819 22.4881 31.6748 22.4861 31.7008 22.5259C31.7881 22.6597 31.8543 22.8124 31.9321 22.9522C32.1456 23.3354 32.3614 23.7211 32.5973 24.0906C32.6173 24.1218 32.6161 24.1501 32.6209 24.1858C32.6441 24.3562 32.8271 24.4427 32.8915 24.6381C32.9559 24.8335 33.0943 24.9797 33.1952 25.1558L33.8142 26.2487C33.8696 26.3478 33.9088 26.458 33.9652 26.5546C34.043 26.6879 34.1498 26.8045 34.2247 26.9401C34.2578 26.9999 34.2557 27.0678 34.2841 27.1272C34.3262 27.2153 34.4177 27.3076 34.4695 27.3974C34.5268 27.4966 34.5653 27.6044 34.622 27.703C34.6707 27.7874 34.7319 27.8646 34.7836 27.9472C34.9272 28.1764 35.0619 28.4276 35.1922 28.6656C35.2971 28.8571 35.3396 29.0314 35.4921 29.1955C35.5872 29.2978 35.593 29.4339 35.6628 29.5488C35.7349 29.6675 35.8207 29.7776 35.892 29.8969C35.9537 30.0003 35.9978 30.1136 36.0586 30.2178C36.4497 30.8879 36.8543 31.5604 37.2226 32.2432C37.2674 32.3262 37.3002 32.4155 37.3456 32.4979C37.4078 32.6107 37.5049 32.7023 37.5694 32.8139C37.6424 32.9402 37.6689 33.0923 37.7416 33.2192C37.8057 33.3311 37.8981 33.4261 37.9641 33.537C38.1191 33.798 38.2457 34.0836 38.3953 34.3475C38.4722 34.4831 38.5841 34.6015 38.6582 34.7396C38.6766 34.7738 38.6819 34.8108 38.6895 34.8483C38.7208 35.0049 38.9022 35.1578 38.9812 35.3021C39.0149 35.3639 39.0115 35.4349 39.0415 35.4959C39.0993 35.613 39.2062 35.7246 39.2729 35.8439L39.9191 36.9828C39.9712 37.0764 40.0069 37.1793 40.0611 37.2715C40.1262 37.3822 40.2221 37.4713 40.2837 37.5851C40.3527 37.7125 40.3818 37.8612 40.4557 37.9861C40.5195 38.0939 40.6079 38.1864 40.6708 38.2948C40.7168 38.3743 40.7484 38.4618 40.793 38.5424L41.4725 39.7463C41.5479 39.879 41.6735 40.0107 41.7327 40.1468C41.7877 40.2731 41.7591 40.4238 41.8098 40.5524L41.8765 40.5391C41.9226 40.5837 41.9258 40.6758 41.9266 40.737C41.9299 40.9819 41.761 41.2966 41.6199 41.4935C41.5465 41.5961 41.4536 41.6852 41.4204 41.8103C41.2949 41.8721 41.1413 41.9208 41.0278 41.9999H34.3135Z" fill="#667F99"/>
<path d="M31.6858 22.4438C31.7611 22.505 31.8261 22.5712 31.8776 22.6539C32.1986 23.1706 32.4841 23.7161 32.7824 24.2465L34.1255 26.6055L38.5087 34.3125L40.7814 38.3062L41.3327 39.2767C41.5764 39.6982 41.8355 40.116 41.9997 40.577V41.0114C41.8357 41.3345 41.7509 41.611 41.4202 41.8107C41.4533 41.6856 41.5463 41.5966 41.6197 41.494C41.7607 41.297 41.9297 40.9824 41.9263 40.7375C41.9255 40.6763 41.9223 40.5842 41.8763 40.5396L41.8095 40.5528C41.7589 40.4243 41.7874 40.2736 41.7325 40.1473C41.6732 40.0112 41.5477 39.8794 41.4723 39.7467L40.7927 38.5428C40.7481 38.4623 40.7165 38.3747 40.6705 38.2953C40.6077 38.1868 40.5192 38.0944 40.4554 37.9866C40.3815 37.8616 40.3525 37.713 40.2835 37.5855C40.2219 37.4717 40.126 37.3827 40.0608 37.2719C40.0066 37.1797 39.9709 37.0768 39.9188 36.9832L39.2727 35.8444C39.2059 35.7251 39.099 35.6134 39.0413 35.4963C39.0112 35.4354 39.0146 35.3644 38.9809 35.3026C38.9019 35.1582 38.7205 35.0053 38.6892 34.8488C38.6816 34.8112 38.6763 34.7742 38.6579 34.74C38.5839 34.602 38.4719 34.4836 38.395 34.3479C38.2455 34.0841 38.1188 33.7985 37.9638 33.5374C37.8978 33.4265 37.8054 33.3315 37.7413 33.2197C37.6686 33.0927 37.6421 32.9407 37.5691 32.8143C37.5047 32.7028 37.4075 32.6111 37.3454 32.4983C37.2999 32.4159 37.2671 32.3267 37.2223 32.2436C36.8541 31.5609 36.4494 30.8884 36.0584 30.2183C35.9975 30.114 35.9534 30.0007 35.8918 29.8974C35.8205 29.778 35.7347 29.6679 35.6626 29.5492C35.5928 29.4343 35.5869 29.2982 35.4919 29.1959C35.3394 29.0319 35.2968 28.8576 35.192 28.6661C35.0616 28.428 34.9269 28.1769 34.7834 27.9477C34.7316 27.8651 34.6704 27.7879 34.6218 27.7035C34.5651 27.6049 34.5265 27.4971 34.4693 27.3978C34.4174 27.3081 34.3259 27.2158 34.2839 27.1277C34.2554 27.0683 34.2575 27.0004 34.2245 26.9406C34.1495 26.805 34.0428 26.6884 33.9649 26.555C33.9086 26.4585 33.8694 26.3483 33.8139 26.2492L33.195 25.1563C33.0941 24.9802 32.9556 24.8339 32.8912 24.6385C32.8268 24.4432 32.6438 24.3567 32.6207 24.1863C32.6158 24.1506 32.617 24.1223 32.5971 24.091C32.3611 23.7216 32.1453 23.3359 31.9319 22.9527C31.854 22.8128 31.7878 22.6602 31.7005 22.5264C31.6745 22.4865 31.6816 22.4886 31.6858 22.4438Z" fill="#667F99"/>
<path d="M0 40.5122C0.0379264 40.4568 0.0600552 40.3936 0.085736 40.3318C0.0953304 40.4891 0.0703007 40.6413 0.0686495 40.7988C0.0677597 40.8836 0.0885291 40.9859 0.0820708 41.0667C0.0800446 41.0921 0.0671326 41.1144 0.0556692 41.1363L0 41.0395V40.5122Z" fill="#667F99"/>
</svg>
