<svg width="42" height="42" viewBox="0 0 42 42" fill="none" xmlns="http://www.w3.org/2000/svg">
<path d="M20.9326 21.0917C23.4305 21.0589 25.4821 23.0572 25.515 25.5552C25.5479 28.0531 23.5496 30.1047 21.0517 30.1376C18.5537 30.1706 16.502 28.1722 16.4692 25.6743C16.4363 23.1762 18.4346 21.1246 20.9326 21.0917Z" fill="#667F99"/>
<path d="M7.41178 17.1534C9.90012 16.9321 12.0967 18.7701 12.3177 21.2585C12.5387 23.7468 10.7007 25.9432 8.21224 26.164C5.72416 26.3849 3.52811 24.547 3.30708 22.0589C3.08605 19.5708 4.92373 17.3747 7.41178 17.1534Z" fill="#667F99"/>
<path d="M33.8285 17.1531C36.3208 16.9646 38.4937 18.8333 38.6802 21.3257C38.8667 23.8182 36.9962 25.9895 34.5036 26.174C32.0138 26.3583 29.8456 24.4904 29.6593 22.0008C29.473 19.5112 31.3391 17.3415 33.8285 17.1531Z" fill="#667F99"/>
<path d="M5.04487 9.2348C5.30134 9.20797 5.55982 9.26146 5.78452 9.38795C6.06765 9.5443 6.27647 9.80746 6.36444 10.1187C6.45435 10.4455 6.40791 10.7948 6.23574 11.0867C6.14531 11.2372 6.02355 11.3624 5.87988 11.4626C5.51713 11.7157 5.06306 11.8929 4.667 12.0911C4.12675 12.3617 3.26913 12.8606 2.70692 13.006C2.41161 13.0218 2.13617 12.9715 1.88651 12.8071C1.60922 12.6245 1.40519 12.3508 1.34272 12.0208C1.27882 11.6862 1.35292 11.3401 1.54817 11.061C1.64281 10.9228 1.76128 10.8201 1.90099 10.7292C2.24873 10.5029 2.66652 10.3315 3.03809 10.1456C3.53364 9.89778 4.53269 9.32807 5.04487 9.2348Z" fill="#667F99"/>
<path d="M36.6765 9.23415C36.8573 9.2211 37.0266 9.23899 37.199 9.29518C37.6045 9.42741 38.0077 9.67548 38.3908 9.86677C38.9145 10.1282 39.4586 10.3727 39.9678 10.6601C40.3007 10.848 40.531 11.0769 40.6333 11.4533C40.7183 11.7664 40.6705 12.1311 40.5029 12.4085C40.3 12.7445 39.9838 12.9079 39.6154 13.0032C39.425 13.0186 39.2488 13.0003 39.0672 12.9403C38.6762 12.811 38.1542 12.5046 37.7717 12.3137C37.2631 12.06 36.6506 11.7976 36.174 11.5012C35.8897 11.3242 35.6902 11.0697 35.6197 10.7375C35.5514 10.4161 35.6087 10.0479 35.7896 9.77178C36.0009 9.44923 36.309 9.30543 36.6765 9.23415Z" fill="#667F99"/>
<path d="M14.5491 0H15.7371C15.7427 0.00207231 15.7483 0.00422857 15.7539 0.00621693C15.9498 0.0752915 16.1722 0.0966119 16.3757 0.140011C16.6524 0.199007 16.9404 0.290812 17.2009 0.400905C18.4884 0.945045 19.3004 1.91975 20.2623 2.88287C20.4954 3.11635 20.7369 3.40297 21.0015 3.59852C22.2279 2.4767 23.1705 1.10859 24.734 0.421514C25.0278 0.292393 25.3417 0.199297 25.6552 0.131791C25.8392 0.0921805 26.066 0.0744625 26.2373 0H27.4137C27.6061 0.0683688 27.8205 0.0821194 28.0199 0.126079C28.3519 0.19923 28.6845 0.313605 28.9957 0.449746C30.3036 1.02432 31.3281 2.09708 31.8421 3.43003C32.3522 4.76309 32.3125 6.24412 31.7316 7.54794C31.5112 8.03899 31.2186 8.49429 30.8634 8.89879C30.3944 9.43339 29.8558 9.92672 29.3519 10.43L26.6572 13.1241L23.5391 16.2432C22.9923 16.791 22.4596 17.3689 21.8873 17.8888C21.734 18.0281 21.5754 18.1439 21.3786 18.2139C21.0868 18.3177 20.7674 18.2932 20.4893 18.1613C20.3443 18.0925 20.2155 17.9922 20.098 17.884C19.4839 17.3183 18.9062 16.6952 18.3156 16.1036L14.8725 12.66L12.4331 10.2222C11.971 9.76053 11.4725 9.30944 11.0534 8.80929C10.6321 8.31415 10.3061 7.74538 10.0916 7.13168C9.61938 5.7728 9.71003 4.28153 10.3433 2.98985C10.9714 1.70887 12.0852 0.731894 13.4371 0.276149C13.6653 0.198859 13.8934 0.147725 14.1291 0.0994534C14.2536 0.0739376 14.3916 0.0574411 14.5111 0.0142333C14.5238 0.00963198 14.5364 0.00474444 14.5491 0Z" fill="#36C99F"/>
<path d="M38.8814 26.832C39.2537 26.9627 39.6369 27.1138 39.9839 27.3017C40.8392 27.7621 41.4874 28.5305 41.7971 29.4511C41.8833 29.7145 41.921 29.9913 41.9995 30.257V40.9941C41.7853 41.5066 41.6678 41.723 41.1229 41.9486C41.1017 41.9575 41.0802 41.9658 41.0589 41.9744C41.0277 41.987 41.0401 41.9809 41.0109 42H31.0715C31.168 41.6934 31.2371 41.3815 31.2621 41.0608C31.2962 40.6223 31.2802 40.1758 31.2798 39.7359L31.2797 37.6124L31.2802 35.534C31.2802 35.0257 31.2933 34.5131 31.2429 34.0067C31.1862 33.4348 31.052 32.8734 30.844 32.3377C30.1718 30.6093 28.9456 29.498 27.2712 28.7594C27.26 28.7182 27.267 28.7001 27.2804 28.6604C27.3186 28.5472 27.3847 28.442 27.431 28.3317C27.4897 28.1917 27.5272 28.0344 27.5993 27.9015C27.8577 27.4257 28.9671 27.0019 29.4845 26.8398C29.7417 27.0338 29.9827 27.2446 30.2485 27.4277C31.1343 28.0367 32.1507 28.4295 33.2159 28.5744C34.8234 28.8004 36.4593 28.4548 37.8381 27.598C38.2066 27.3686 38.5371 27.0948 38.8814 26.832Z" fill="#667F99"/>
<path d="M12.5114 26.8366C13.0295 26.9855 14.1392 27.4424 14.3979 27.9107C14.5288 28.1477 14.6526 28.4858 14.7437 28.7443C14.3903 28.9171 14.0346 29.0708 13.6982 29.2773C12.4676 30.0372 11.5383 31.1999 11.068 32.5676C10.9061 33.0386 10.8011 33.5274 10.7552 34.0232C10.7062 34.5566 10.718 35.0925 10.718 35.6275L10.7185 37.7439L10.7179 39.7905C10.7177 40.2102 10.7024 40.637 10.7353 41.0555C10.7609 41.3784 10.8314 41.6908 10.9262 42.0001H0.985688C0.567146 41.8137 0.338235 41.714 0.117643 41.2854C0.0804541 41.2132 0.0568634 41.1353 0.0184547 41.0636L0 41.0297V30.17C0.00543643 30.1596 0.0110936 30.1493 0.0163093 30.1387C0.125402 29.9189 0.159814 29.5264 0.266001 29.2639C0.772185 28.0123 1.64196 27.3794 2.86767 26.9255C2.95195 26.8943 3.03558 26.8657 3.12275 26.8434C3.46224 27.1077 3.79111 27.3771 4.15732 27.6047C5.51969 28.4456 7.13041 28.7909 8.71771 28.5822C9.79601 28.4446 10.826 28.0523 11.7224 27.4374C11.994 27.2501 12.2374 27.0154 12.5114 26.8366Z" fill="#667F99"/>
<path d="M25.7065 30.7839C26.0459 30.9167 26.3918 31.0433 26.7169 31.2092C27.5031 31.6062 28.1283 32.2622 28.4869 33.0667C28.6448 33.4236 28.7581 33.8243 28.7942 34.2135C28.8296 34.5933 28.8166 34.9816 28.8167 35.3628L28.8173 37.1243V39.4875C28.8172 39.9071 28.8321 40.3326 28.8124 40.7516C28.8056 40.8974 28.7934 41.0683 28.7389 41.2043C28.598 41.5561 28.3317 41.7873 27.9871 41.9311C27.9345 41.953 27.88 41.9708 27.831 42.0001H14.1574C13.7703 41.7961 13.3798 41.6348 13.238 41.1689C13.1897 41.01 13.1862 40.8005 13.1802 40.6345C13.1639 40.1811 13.1765 39.7229 13.1768 39.2692V36.8335L13.177 35.3082C13.1774 34.8943 13.1659 34.4698 13.2262 34.0593C13.3006 33.5559 13.4748 33.0724 13.7386 32.6372C14.3651 31.5862 15.1928 31.2047 16.2838 30.7896L16.3055 30.8036C16.4716 30.9132 16.6207 31.0474 16.7775 31.1696C16.9821 31.3272 17.1954 31.4731 17.4164 31.6067C18.9052 32.4969 20.6721 32.801 22.3728 32.4597C23.3062 32.2727 24.1905 31.8939 24.9697 31.3473C25.2218 31.1702 25.45 30.9505 25.7065 30.7839Z" fill="#667F99"/>
<path d="M39.1849 0H39.6983C39.7722 0.0439606 39.8599 0.0701458 39.9382 0.106977C40.1835 0.222443 40.409 0.409662 40.5402 0.649021C40.6929 0.927375 40.7128 1.30557 40.6173 1.60706C40.4923 2.00182 40.2027 2.22735 39.8498 2.41208C39.3958 2.64975 38.9295 2.86584 38.4718 3.09678C38.0981 3.2854 37.4878 3.65165 37.1078 3.74172C36.8874 3.79453 36.6569 3.78636 36.4408 3.71807C36.1312 3.61966 35.8539 3.38559 35.7097 3.094C35.5685 2.80842 35.5573 2.44617 35.6591 2.14535C35.7341 1.92161 35.8729 1.7247 36.0584 1.57885C36.3301 1.36181 36.6928 1.22934 37.0027 1.07401L39.1849 0Z" fill="#667F99"/>
<path d="M2.28123 0H2.80247C2.94142 0.0918204 3.14045 0.152777 3.29443 0.227883L4.91498 1.03483C5.21897 1.18671 5.55896 1.32644 5.83981 1.51667C5.99054 1.61877 6.12253 1.73553 6.22066 1.89102C6.39716 2.1707 6.45261 2.53291 6.37368 2.85354C6.29552 3.17103 6.06389 3.45629 5.78361 3.61975C5.50266 3.7836 5.17322 3.81282 4.86209 3.73035C4.44814 3.62063 3.67255 3.16918 3.24185 2.95468C2.80788 2.73854 2.24022 2.50962 1.8547 2.2442C1.69266 2.13442 1.5588 1.98797 1.46398 1.81674C1.30197 1.52082 1.28371 1.14827 1.38451 0.828273C1.53218 0.35943 1.87938 0.204789 2.28123 0Z" fill="#667F99"/>
</svg>
